<?xml version="1.0" encoding="UTF-8" standalone="no"?>
<!DOCTYPE svg PUBLIC "-//W3C//DTD SVG 1.1//EN" "http://www.w3.org/Graphics/SVG/1.1/DTD/svg11.dtd">
<svg width="100%" height="100%" viewBox="0 0 80 80" version="1.1" xmlns="http://www.w3.org/2000/svg"
     style="fill-rule:evenodd;clip-rule:evenodd;stroke-linejoin:round;stroke-miterlimit:2;">
    <g transform="matrix(8.93098,0,0,8.98051,-2.98129,-2.59401)">
        <path d="M7.5,0.289C7.975,0.289 8.431,0.477 8.767,0.811C9.103,1.145 9.291,1.598 9.291,2.07L9.291,7.416C9.291,7.888 9.103,8.341 8.767,8.675C8.431,9.009 7.975,9.197 7.5,9.197L2.124,9.197C1.135,9.197 0.334,8.4 0.334,7.417L0.334,2.069C0.334,1.086 1.135,0.289 2.124,0.289L7.5,0.289ZM5.98,5.937C6.204,5.913 6.373,5.711 6.365,5.469C6.358,5.227 6.165,5.033 5.934,5.033L5.919,5.033C5.68,5.042 5.495,5.251 5.503,5.501C5.51,5.622 5.557,5.727 5.626,5.8C5.364,6.341 4.963,6.736 4.363,7.067C3.954,7.293 3.531,7.374 3.107,7.317C2.76,7.269 2.491,7.107 2.321,6.841C2.075,6.446 2.052,6.018 2.26,5.59C2.406,5.284 2.637,5.058 2.784,4.945C2.753,4.84 2.707,4.662 2.683,4.533C1.566,5.38 1.682,6.526 2.021,7.067C2.275,7.47 2.791,7.721 3.361,7.721C3.515,7.721 3.669,7.704 3.823,7.664C4.809,7.462 5.557,6.849 5.98,5.937ZM7.336,4.937C6.751,4.218 5.888,3.823 4.902,3.823L4.779,3.823C4.709,3.678 4.563,3.581 4.401,3.581L4.386,3.581C4.147,3.589 3.962,3.799 3.97,4.049C3.977,4.291 4.17,4.485 4.401,4.485L4.417,4.485C4.586,4.477 4.732,4.364 4.794,4.21L4.933,4.21C5.518,4.21 6.073,4.388 6.573,4.735C6.958,5.001 7.236,5.348 7.39,5.768C7.521,6.107 7.513,6.438 7.374,6.72C7.159,7.148 6.797,7.382 6.319,7.382C6.011,7.382 5.718,7.285 5.564,7.212C5.48,7.293 5.325,7.422 5.218,7.503C5.549,7.664 5.888,7.753 6.211,7.753C6.951,7.753 7.498,7.325 7.706,6.897C7.929,6.429 7.914,5.622 7.336,4.937ZM3.423,6.074C3.431,6.316 3.623,6.51 3.854,6.51L3.87,6.51C4.108,6.502 4.293,6.292 4.286,6.042C4.278,5.8 4.085,5.606 3.854,5.606L3.839,5.606C3.823,5.606 3.8,5.606 3.785,5.614C3.469,5.066 3.338,4.469 3.384,3.823C3.415,3.339 3.569,2.919 3.839,2.572C4.062,2.274 4.494,2.128 4.786,2.12C5.603,2.104 5.949,3.169 5.973,3.597C6.073,3.621 6.242,3.678 6.358,3.718C6.265,2.411 5.495,1.733 4.755,1.733C4.062,1.733 3.423,2.258 3.169,3.032C2.814,4.065 3.045,5.058 3.477,5.84C3.438,5.897 3.415,5.986 3.423,6.074Z" style="fill:rgb(169,2,2);"/>
    </g>
</svg>
